PathFileType	4	(x/y/z)	S01_PSF_T12.trc
DataRate	CameraRate	NumFrames	NumMarkers	Units	OrigDataRate	OrigDataStartFrame	OrigNumFrames
240	240	5	51	mm	240	1	372
Frame#	Time	Sternum			R.Acromium			L.Acromium			Top.Head			R.ASIS			L.ASIS			R.PSIS			L.PSIS			R.Great.Tro			L.Great.Tro			R.Iliac.Crest			L.Iliac.Crest			V.Sacral			R.Thigh.Upper.Post			R.Thigh.Lower.Ant			R.Thigh.Lower.Post			R.Thigh.Upper.Ant			R.Knee.Lat			R.Knee.Med			R.Shank.Upper.Post			R.Shank.Lower.Ant			R.Shank.Lower.Post			R.Shank.Upper.Ant			R.Ankle.Lat			R.Ankle.Med			R.Heel.Upper			R.Heel.Med			R.Heel.Lat			R.Toe.Lat			R.Toe.Med			R.Toe.Tip			L.Thigh.Upper.Post			L.Thigh.Lower.Ant			L.Thigh.Lower.Post			L.Thigh.Upper.Ant			L.Knee.Lat			L.Knee.Med			L.Shank.Upper.Post			L.Shank.Lower.Ant			L.Shank.Lower.Post			L.Shank.Upper.Ant			L.Ankle.Lat			L.Ankle.Med			L.Heel.Upper			L.Heel.Med			L.Heel.Lat			L.Toe.Lat			L.Toe.Med			L.Toe.Tip			Cervical.Spine			Back			
		X1	Y1	Z1	X2	Y2	Z2	X3	Y3	Z3	X4	Y4	Z4	X5	Y5	Z5	X6	Y6	Z6	X7	Y7	Z7	X8	Y8	Z8	X9	Y9	Z9	X10	Y10	Z10	X11	Y11	Z11	X12	Y12	Z12	X13	Y13	Z13	X14	Y14	Z14	X15	Y15	Z15	X16	Y16	Z16	X17	Y17	Z17	X18	Y18	Z18	X19	Y19	Z19	X20	Y20	Z20	X21	Y21	Z21	X22	Y22	Z22	X23	Y23	Z23	X24	Y24	Z24	X25	Y25	Z25	X26	Y26	Z26	X27	Y27	Z27	X28	Y28	Z28	X29	Y29	Z29	X30	Y30	Z30	X31	Y31	Z31	X32	Y32	Z32	X33	Y33	Z33	X34	Y34	Z34	X35	Y35	Z35	X36	Y36	Z36	X37	Y37	Z37	X38	Y38	Z38	X39	Y39	Z39	X40	Y40	Z40	X41	Y41	Z41	X42	Y42	Z42	X43	Y43	Z43	X44	Y44	Z44	X45	Y45	Z45	X46	Y46	Z46	X47	Y47	Z47	X48	Y48	Z48	X49	Y49	Z49	X50	Y50	Z50	X51	Y51	Z51	

1	0	-1056.1	1291.3	269.97	-1157.9	1546.8	447.77	-1186.9	1562.7	121.3	-1118.4	1865.1	273.03	-1117.5	1042.3	433.46	-1107.4	1044.5	169.18	-1352.1	1081.8	338.21	-1358.9	1085.2	234.82	-1200.5	991.34	518	-1214.9	993.49	90.529	-1204.3	1144.9	495.17	-1217.6	1126.2	91.992	-1369.5	1047.7	283.63	-1121.4	689.46	512.66	-1032.4	637.46	501.89	-1094.6	605.09	500.68	-1058.3	724.89	512.42	-1069.2	548.93	501.9	-1037.8	547.04	352.57	-1203.7	460.81	502.61	-1205.8	354.95	467.87	-1250.5	408.15	489.54	-1161.1	411.16	489.26	-1377.4	254.26	447.49	-1333.4	232	361.27	-1444.4	273.28	376.79	NaN	NaN	NaN	-1459.2	244.71	410.41	-1336.7	114.26	497.4	-1289	91.417	382.34	-1237.5	70.261	447.85	-1234.1	706.41	119.47	-1143.9	638.79	117.99	-1218	617.39	138.51	-1171.4	730.57	96.846	-1162.8	534.7	130.54	-1139.1	540.63	272.94	-1224.8	396.01	116.46	-1166	304.83	142.72	-1227.2	317.99	121.63	-1161.6	381.24	131.95	-1251.1	107.65	162.64	-1223.4	117.35	260.85	-1321.8	77.086	210.96	-1311.4	52.58	243.74	-1315.4	52.231	181.75	-1104.2	39.913	143.6	-1077.1	45.726	264.72	-1014.1	54.574	212.17	-1252	1613.3	291.62	-1360.8	1308.9	310.19
2	0.0041667	-1051.6	1291.8	270.18	-1153.8	1547.1	447.79	-1181.9	1563.1	121.23	-1113.5	1865.3	273.29	-1113.1	1042.9	433.11	-1103	1044.7	168.93	-1347.7	1082.1	338.28	-1354.6	1085.6	234.89	-1195.1	992.01	517.8	-1210.6	993.68	90.566	-1199.8	1145.5	494.93	-1213	1126.6	91.925	-1365.1	1048.1	283.7	-1114.8	690.61	512.84	-1025.6	639.2	501.5	-1087.4	606.41	500.44	-1051.9	726.46	512.19	-1061.7	550.32	501.68	-1030.8	548.74	352.46	-1194.9	459.83	502.52	-1195.1	354.18	467.66	-1240.8	406.55	489.2	-1151.4	411.1	489.11	-1364.8	250.45	447.15	-1320.7	229.34	360.88	-1432	267.99	376.63	NaN	NaN	NaN	-1446.5	239.21	410.24	-1321.1	111.69	496.83	-1273.1	90.122	381.58	-1221.1	70.195	446.88	-1231.8	706.93	119.48	-1142.1	638.76	117.93	-1216.3	617.82	138.41	-1168.8	730.61	96.845	-1161.7	534.71	130.42	-1137.8	540.44	272.82	-1224	396.15	116.39	-1165.5	304.85	142.67	-1226.6	318.11	121.6	-1161	381.21	131.91	-1251.1	107.8	162.69	-1223.2	117.47	260.86	-1321.8	77.325	211	-1311.3	52.767	243.78	-1315.4	52.449	181.79	-1104.2	39.91	143.6	-1077	45.691	264.69	-1014	54.454	212.16	-1247.4	1613.6	291.38	-1356.3	1309.2	309.69
3	0.0083333	-1046.8	1292.3	270.39	-1149.5	1547.4	447.83	-1176.7	1563.5	121.17	-1108.5	1865.6	273.57	-1108.5	1043.5	432.76	-1098.4	1044.9	168.66	-1343.2	1082.5	338.36	-1350	1085.9	234.96	-1189.7	992.7	517.62	-1206.2	993.85	90.601	-1195	1146	494.7	-1208.3	1126.9	91.849	-1360.6	1048.5	283.78	-1107.9	691.78	513.02	-1018.5	641	501.08	-1079.9	607.77	500.2	-1045.2	728.06	511.96	-1054	551.74	501.44	-1023.6	550.48	352.35	-1185.8	458.8	502.43	-1183.8	353.37	467.42	-1230.6	404.85	488.86	-1141.4	411.01	488.94	-1351.7	246.47	446.8	-1307.5	226.54	360.48	-1419.1	262.46	376.46	NaN	NaN	NaN	-1433.1	233.44	410.06	-1304.8	109.04	496.25	-1256.6	88.794	380.82	-1203.9	70.163	445.88	-1229.5	707.45	119.5	-1140.2	638.72	117.87	-1214.5	618.25	138.31	-1166.2	730.66	96.847	-1160.6	534.71	130.29	-1136.4	540.23	272.7	-1223.2	396.29	116.33	-1165	304.87	142.61	-1226.1	318.24	121.58	-1160.2	381.18	131.86	-1251	107.95	162.75	-1223	117.58	260.88	-1321.7	77.567	211.04	-1311.2	52.958	243.81	-1315.3	52.673	181.82	-1104.2	39.906	143.6	-1077	45.658	264.65	-1013.9	54.331	212.16	-1242.6	1614	291.14	-1351.6	1309.6	309.17
4	0.0125	-1041.9	1292.8	270.61	-1145.1	1547.7	447.86	-1171.3	1564	121.11	-1103.4	1865.8	273.87	-1103.7	1044.1	432.42	-1093.7	1045.1	168.4	-1338.5	1082.8	338.43	-1345.4	1086.2	235.04	-1184	993.39	517.45	-1201.7	994.01	90.633	-1190.2	1146.5	494.48	-1203.4	1127.2	91.768	-1355.9	1048.8	283.87	-1100.9	692.97	513.2	-1011.1	642.82	500.64	-1072.3	609.15	499.95	-1038.4	729.69	511.72	-1046.1	553.18	501.17	-1016.2	552.25	352.23	-1176.3	457.69	502.33	-1172.3	352.52	467.15	-1220.1	403.06	488.51	-1131	410.91	488.76	-1338.1	242.34	446.44	-1293.7	223.64	360.07	-1405.6	256.72	376.27	NaN	NaN	NaN	-1419.2	227.45	409.88	-1288	106.35	495.66	-1239.4	87.448	380.05	-1186.2	70.173	444.88	-1227	707.99	119.51	-1138.2	638.68	117.81	-1212.7	618.69	138.2	-1163.5	730.7	96.85	-1159.4	534.71	130.17	-1135	540.01	272.58	-1222.4	396.43	116.26	-1164.4	304.88	142.55	-1225.5	318.38	121.56	-1159.5	381.15	131.82	-1250.9	108.11	162.81	-1222.8	117.7	260.91	-1321.6	77.811	211.08	-1311.2	53.152	243.85	-1315.3	52.901	181.86	-1104.2	39.903	143.6	-1076.9	45.625	264.61	-1013.9	54.208	212.15	-1237.7	1614.3	290.9	-1346.7	1309.9	308.65
5	0.016667	-1036.9	1293.2	270.83	-1140.6	1548	447.9	-1165.8	1564.4	121.05	-1098.1	1866.1	274.18	-1098.8	1044.7	432.1	-1088.9	1045.2	168.13	-1333.7	1083.2	338.51	-1340.5	1086.5	235.11	-1178.4	994.08	517.3	-1197	994.14	90.662	-1185.2	1147	494.26	-1198.4	1127.5	91.682	-1351.1	1049.2	283.95	-1093.6	694.17	513.36	-1003.7	644.66	500.18	-1064.5	610.54	499.7	-1031.5	731.32	511.47	-1038.1	554.62	500.89	-1008.6	554.03	352.11	-1166.6	456.53	502.22	-1160.4	351.64	466.87	-1209.3	401.17	488.17	-1120.3	410.77	488.56	-1324	238.09	446.08	-1279.5	220.65	359.64	-1391.7	250.8	376.08	NaN	NaN	NaN	-1404.8	221.26	409.7	-1270.5	103.63	495.07	-1221.7	86.099	379.29	-1167.9	70.236	443.88	-1224.5	708.53	119.52	-1136.1	638.63	117.76	-1210.8	619.14	138.09	-1160.7	730.75	96.857	-1158.2	534.71	130.04	-1133.6	539.77	272.46	-1221.5	396.58	116.2	-1163.8	304.89	142.5	-1224.9	318.51	121.54	-1158.8	381.13	131.77	-1250.8	108.27	162.87	-1222.6	117.82	260.94	-1321.5	78.052	211.14	-1311.1	53.346	243.9	-1315.2	53.131	181.91	-1104.1	39.899	143.6	-1076.8	45.593	264.57	-1013.8	54.084	212.14	-1232.6	1614.6	290.65	-1341.7	1310.3	308.11
